<svg width="23" height="23" viewBox="0 0 23 23" fill="none" xmlns="http://www.w3.org/2000/svg">
<path d="M6.21501 20.6641C5.45501 20.6641 4.80901 20.4009 4.27701 19.8745C3.745 19.3482 3.479 18.709 3.479 17.957V16.1524C3.479 15.8967 3.56656 15.6825 3.74166 15.5099C3.91676 15.3372 4.13321 15.2506 4.39101 15.25H6.21501V3.15861C6.21501 3.05333 6.26061 2.98175 6.35181 2.94385C6.44301 2.90595 6.52661 2.9249 6.60261 3.0007L7.26381 3.6549C7.35501 3.74513 7.46141 3.79025 7.58301 3.79025C7.70461 3.79025 7.81101 3.74513 7.90221 3.6549L8.63181 2.93302C8.72301 2.84279 8.82941 2.79767 8.95101 2.79767C9.07261 2.79767 9.17901 2.84279 9.27022 2.93302L9.99982 3.6549C10.091 3.74513 10.1974 3.79025 10.319 3.79025C10.4406 3.79025 10.547 3.74513 10.6382 3.6549L11.3678 2.93302C11.459 2.84279 11.5654 2.79767 11.687 2.79767C11.8086 2.79767 11.915 2.84279 12.0062 2.93302L12.7358 3.6549C12.827 3.74513 12.9334 3.79025 13.055 3.79025C13.1766 3.79025 13.283 3.74513 13.3742 3.6549L14.1038 2.93302C14.195 2.84279 14.3014 2.79767 14.423 2.79767C14.5446 2.79767 14.651 2.84279 14.7422 2.93302L15.4718 3.6549C15.563 3.74513 15.6694 3.79025 15.791 3.79025C15.9126 3.79025 16.019 3.74513 16.1102 3.6549L16.8398 2.93302C16.931 2.84279 17.0374 2.79767 17.159 2.79767C17.2806 2.79767 17.387 2.84279 17.4782 2.93302L18.2078 3.6549C18.299 3.74513 18.4054 3.79025 18.527 3.79025C18.6486 3.79025 18.755 3.74513 18.8462 3.6549L19.5074 3.0007C19.5834 2.9255 19.667 2.90655 19.7582 2.94385C19.8494 2.98114 19.895 3.05273 19.895 3.15861V17.957C19.895 18.709 19.629 19.3482 19.097 19.8745C18.565 20.4009 17.919 20.6641 17.159 20.6641H6.21501ZM17.159 18.8594C17.4174 18.8594 17.6342 18.7728 17.8093 18.5995C17.9844 18.4263 18.0716 18.2121 18.071 17.957V5.32423H8.03901V15.25H15.335C15.5934 15.25 15.8102 15.3366 15.9853 15.5099C16.1604 15.6831 16.2476 15.8973 16.247 16.1524V17.957C16.247 18.2127 16.3346 18.4272 16.5097 18.6004C16.6848 18.7737 16.9012 18.86 17.159 18.8594ZM9.86302 7.12892H13.511C13.7694 7.12892 13.9862 7.21554 14.1613 7.38879C14.3364 7.56204 14.4236 7.7762 14.423 8.03126C14.423 8.28693 14.3355 8.50138 14.1604 8.67463C13.9853 8.84788 13.7688 8.93421 13.511 8.93361H9.86302C9.60462 8.93361 9.38817 8.84698 9.21367 8.67373C9.03917 8.50048 8.95162 8.28632 8.95101 8.03126C8.95101 7.7756 9.03857 7.56144 9.21367 7.38879C9.38878 7.21615 9.60522 7.12952 9.86302 7.12892ZM9.86302 9.83595H13.511C13.7694 9.83595 13.9862 9.92258 14.1613 10.0958C14.3364 10.2691 14.4236 10.4832 14.423 10.7383C14.423 10.994 14.3355 11.2084 14.1604 11.3817C13.9853 11.5549 13.7688 11.6412 13.511 11.6406H9.86302C9.60462 11.6406 9.38817 11.554 9.21367 11.3808C9.03917 11.2075 8.95162 10.9934 8.95101 10.7383C8.95101 10.4826 9.03857 10.2685 9.21367 10.0958C9.38878 9.92318 9.60522 9.83655 9.86302 9.83595ZM16.247 8.93361C15.9886 8.93361 15.7722 8.84698 15.5977 8.67373C15.4232 8.50048 15.3356 8.28632 15.335 8.03126C15.335 7.7756 15.4226 7.56144 15.5977 7.38879C15.7728 7.21615 15.9892 7.12952 16.247 7.12892C16.5054 7.12892 16.7222 7.21554 16.8973 7.38879C17.0724 7.56204 17.1596 7.7762 17.159 8.03126C17.159 8.28693 17.0715 8.50138 16.8964 8.67463C16.7213 8.84788 16.5048 8.93421 16.247 8.93361ZM16.247 11.6406C15.9886 11.6406 15.7722 11.554 15.5977 11.3808C15.4232 11.2075 15.3356 10.9934 15.335 10.7383C15.335 10.4826 15.4226 10.2685 15.5977 10.0958C15.7728 9.92318 15.9892 9.83655 16.247 9.83595C16.5054 9.83595 16.7222 9.92258 16.8973 10.0958C17.0724 10.2691 17.1596 10.4832 17.159 10.7383C17.159 10.994 17.0715 11.2084 16.8964 11.3817C16.7213 11.5549 16.5048 11.6412 16.247 11.6406Z" fill="#FFF8E8"/>
</svg>
