<svg width="23" height="23" viewBox="0 0 23 23" fill="none" xmlns="http://www.w3.org/2000/svg">
<path d="M11.2596 11.625C10.2564 11.625 9.39757 11.2716 8.68317 10.5647C7.96877 9.85791 7.61157 9.0082 7.61157 8.01563C7.61157 7.02305 7.96877 6.17334 8.68317 5.4665C9.39757 4.75967 10.2564 4.40625 11.2596 4.40625C12.2628 4.40625 13.1216 4.75967 13.836 5.4665C14.5504 6.17334 14.9076 7.02305 14.9076 8.01563C14.9076 9.0082 14.5504 9.85791 13.836 10.5647C13.1216 11.2716 12.2628 11.625 11.2596 11.625ZM3.96356 18.8438V16.3172C3.96356 15.8059 4.09671 15.336 4.36302 14.9077C4.62932 14.4794 4.98257 14.1522 5.42276 13.926C6.36517 13.4598 7.32277 13.1103 8.29557 12.8775C9.26837 12.6446 10.2564 12.5279 11.2596 12.5273C12.2628 12.5273 13.2508 12.644 14.2236 12.8775C15.1964 13.1109 16.154 13.4604 17.0964 13.926C17.5372 14.1516 17.8907 14.4788 18.157 14.9077C18.4233 15.3366 18.5562 15.8065 18.5556 16.3172V18.8438H3.96356Z" fill="#FFF8E8"/>
</svg>
