<svg width="26" height="26" viewBox="0 0 26 26" fill="none" xmlns="http://www.w3.org/2000/svg">
<path d="M15.4667 22.1546L9.70038 20.1551L4.68852 22.0746C4.50888 22.1457 4.33355 22.1681 4.16254 22.1418C3.99153 22.1155 3.83452 22.0575 3.69153 21.968C3.54782 21.8791 3.43573 21.7593 3.35525 21.6086C3.27478 21.4579 3.23418 21.2844 3.23346 21.0882V6.13184C3.23346 5.90078 3.301 5.69639 3.43609 5.51865C3.57118 5.34092 3.75512 5.20762 3.98793 5.11875L8.9998 3.43916C9.10758 3.40361 9.22003 3.37695 9.33716 3.35918C9.45428 3.34141 9.57535 3.33252 9.70038 3.33252C9.82613 3.33252 9.94756 3.34141 10.0647 3.35918C10.1818 3.37695 10.2939 3.40361 10.401 3.43916L16.1673 5.43867L21.1792 3.51914C21.3588 3.44805 21.5341 3.42601 21.7051 3.45302C21.8762 3.48004 22.0332 3.53763 22.1762 3.62578C22.3199 3.71465 22.4323 3.8348 22.5135 3.98623C22.5947 4.13766 22.6349 4.31077 22.6342 4.50557V19.4619C22.6342 19.693 22.567 19.8974 22.4327 20.0751C22.2983 20.2528 22.114 20.3861 21.8797 20.475L16.8679 22.1546C16.7601 22.1901 16.648 22.2168 16.5316 22.2346C16.4152 22.2523 16.2938 22.2612 16.1673 22.2612C16.0416 22.2612 15.9205 22.2523 15.8041 22.2346C15.6877 22.2168 15.5752 22.1901 15.4667 22.1546ZM15.0895 19.7818V7.30488L10.7782 5.81191V18.2889L15.0895 19.7818ZM17.2451 19.7818L20.4786 18.7154V6.07852L17.2451 7.30488V19.7818ZM5.3891 19.5152L8.62256 18.2889V5.81191L5.3891 6.87832V19.5152Z" fill="#FFF8E8"/>
</svg>
