<svg width="24" height="24" viewBox="0 0 24 24" fill="none" xmlns="http://www.w3.org/2000/svg">
<path d="M10.2394 18.7363C9.96923 18.7363 9.74295 18.6458 9.56052 18.4646C9.37809 18.2835 9.28656 18.0596 9.28592 17.793C9.28592 17.5257 9.37746 17.3018 9.56052 17.1213C9.74358 16.9408 9.96987 16.8502 10.2394 16.8496H19.7739C20.0441 16.8496 20.2707 16.9402 20.4538 17.1213C20.6368 17.3024 20.728 17.5263 20.7274 17.793C20.7274 18.0603 20.6359 18.2845 20.4528 18.4656C20.2697 18.6467 20.0435 18.737 19.7739 18.7363H10.2394ZM10.2394 13.0762C9.96923 13.0762 9.74295 12.9856 9.56052 12.8045C9.37809 12.6234 9.28656 12.3995 9.28592 12.1328C9.28592 11.8655 9.37746 11.6416 9.56052 11.4611C9.74358 11.2806 9.96987 11.1901 10.2394 11.1895H19.7739C20.0441 11.1895 20.2707 11.28 20.4538 11.4611C20.6368 11.6423 20.728 11.8662 20.7274 12.1328C20.7274 12.4001 20.6359 12.6243 20.4528 12.8054C20.2697 12.9866 20.0435 13.0768 19.7739 13.0762H10.2394ZM10.2394 7.41602C9.96923 7.41602 9.74295 7.32545 9.56052 7.14433C9.37809 6.9632 9.28656 6.73931 9.28592 6.47266C9.28592 6.20537 9.37746 5.98148 9.56052 5.80098C9.74358 5.62049 9.96987 5.52993 10.2394 5.5293H19.7739C20.0441 5.5293 20.2707 5.61986 20.4538 5.80098C20.6368 5.98211 20.728 6.206 20.7274 6.47266C20.7274 6.73994 20.6359 6.96415 20.4528 7.14527C20.2697 7.3264 20.0435 7.41664 19.7739 7.41602H10.2394ZM5.4721 19.6797C4.9477 19.6797 4.49894 19.4951 4.12582 19.1259C3.7527 18.7568 3.56582 18.3124 3.56519 17.793C3.56519 17.2741 3.75206 16.8301 4.12582 16.4609C4.49957 16.0918 4.94833 15.9069 5.4721 15.9062C5.9965 15.9062 6.44558 16.0911 6.81933 16.4609C7.19309 16.8307 7.37965 17.2747 7.37901 17.793C7.37901 18.3118 7.19245 18.7561 6.81933 19.1259C6.44621 19.4957 5.99713 19.6803 5.4721 19.6797ZM5.4721 14.0195C4.9477 14.0195 4.49894 13.8349 4.12582 13.4658C3.7527 13.0966 3.56582 12.6523 3.56519 12.1328C3.56519 11.614 3.75206 11.17 4.12582 10.8008C4.49957 10.4316 4.94833 10.2467 5.4721 10.2461C5.9965 10.2461 6.44558 10.431 6.81933 10.8008C7.19309 11.1706 7.37965 11.6146 7.37901 12.1328C7.37901 12.6517 7.19245 13.096 6.81933 13.4658C6.44621 13.8356 5.99713 14.0202 5.4721 14.0195ZM5.4721 8.35938C4.9477 8.35938 4.49894 8.17479 4.12582 7.80562C3.7527 7.43646 3.56582 6.99213 3.56519 6.47266C3.56519 5.95381 3.75206 5.5098 4.12582 5.14063C4.49957 4.77146 4.94833 4.58657 5.4721 4.58594C5.9965 4.58594 6.44558 4.77084 6.81933 5.14063C7.19309 5.51043 7.37965 5.95444 7.37901 6.47266C7.37901 6.9915 7.19245 7.43583 6.81933 7.80562C6.44621 8.17542 5.99713 8.36 5.4721 8.35938Z" fill="#FFF8E8"/>
</svg>
